PathFileType	4	(X/Y/Z)	ScaleMarkers.trc																																																																																								
DataRate	CameraRate	NumFrames	NumMarkers	Units	OrigDataRate	OrigDataStartFrame	OrigNumFrames																																																																																				
100	100	10	30	mm	100	26 100																																																																																					
Frame#	Time	Thumb_MCP_L			Thumb_PIP_L			Thumb_DIP_L			Thumb_TIP_L			Index_MCP_L			Index_PIP_L			Index_DIP_L			Index_TIP_L			Middle_MCP_L			Middle_PIP_L			Middle_DIP_L			Middle_TIP_L			Ring_MCP_L			Ring_PIP_L			Ring_DIP_L			Ring_TIP_L			Little_MCP_L			Little_PIP_L			Little_DIP_L			Little_TIP_L			Wrist_L			Elbow_L			Point_W1_L			Point_E1_L			Shoulder_L			Point_F1_L			Point_F2_L			Point_F3_L			Point_F4_L			Point_F5_L		
		X1	Y1	Z1	X2	Y2	Z2	X3	Y3	Z3	X4	Y4	Z4	X5	Y5	Z5	X6	Y6	Z6	X7	Y7	Z7	X8	Y8	Z8	X9	Y9	Z9	X10	Y10	Z10	X11	Y11	Z11	X12	Y12	Z12	X13	Y13	Z13	X14	Y14	Z14	X15	Y15	Z15	X16	Y16	Z16	X17	Y17	Z17	X18	Y18	Z18	X19	Y19	Z19	X20	Y20	Z20	X21	Y21	Z21	X22	Y22	Z22	X23	Y23	Z23	X24	Y24	Z24	X25	Y25	Z25	X26	Y26	Z26	X27	Y27	Z27	X28	Y28	Z28	X29	Y29	Z29	X30	Y30	Z30
26	13.99348617	192.2753807	-111.0118714	-165.1585004	198.4304202	-102.7187622	-152.9389012	207.4885566	-112.6269222	-148.9716269	215.8399842	-124.9809065	-147.3469849	197.5419289	-113.4578479	-183.9396189	219.6362389	-120.5717187	-164.9389268	211.8045017	-137.3583796	-157.395213	204.0939779	-152.3558805	-151.1007335	193.3320976	-117.1978419	-184.5930064	221.2639052	-130.9307046	-177.1615319	211.84006	-147.3743721	-164.127683	200.1668467	-159.8855935	-153.7744949	190.326272	-121.9050291	-190.2467947	220.6388031	-130.8681156	-185.2591125	211.0600786	-146.6625514	-173.3065073	201.2129744	-160.5086219	-162.7565201	187.8914016	-122.193779	-190.4540599	210.4113407	-126.1544792	-192.9424893	210.8007353	-137.9061796	-187.401508	195.3184736	-146.3625585	-180.3471099	157.3783083	-101.8970127	-163.9469212	-38.89529277	-127.5596497	-135.3347229	167.3347127	-84.90716755	-160.4538413	-35.08126651	-142.3819319	-122.4604532	0	0	0	206.0939086	-103.2741999	-177.3762891	206.4889244	-124.0928523	-198.3232781	191.7848851	-129.0323225	-200.6412496	189.5158838	-133.6485169	-206.4159672	184.4319757	-130.6902374	-208.2268269
27	14.00348617	192.3866932	-110.9815613	-165.0128647	198.2652762	-102.6183774	-152.7004334	207.3395179	-112.4967334	-148.6969959	215.7390893	-124.8190624	-147.0822089	197.6371024	-113.3903004	-183.8030249	219.7021609	-120.4794344	-164.7550731	211.8480359	-137.2827037	-157.2729409	204.1112707	-152.2927874	-151.0406895	193.4267877	-117.1290357	-184.4603833	221.4070227	-130.7774255	-177.0489643	211.7726876	-147.1766314	-164.115944	200.0663271	-159.7117829	-153.8275855	190.4161934	-121.824966	-190.1210047	220.6889942	-130.8470735	-185.0007265	211.1793937	-146.6923331	-173.0633225	201.2968286	-160.5452673	-162.5542276	187.9811512	-122.1133297	-190.3268651	210.4826919	-126.188879	-192.7934667	210.8619594	-137.9756894	-187.3243444	195.3716741	-146.4579626	-180.3152108	157.4904762	-101.8695479	-163.7550541	-38.70740382	-127.9602429	-135.0125432	167.4495236	-84.88641599	-160.2365495	-34.85075469	-142.7440225	-122.1064337	0	0	0	206.290908	-103.0765305	-177.0167212	206.6360616	-123.995447	-198.175028	191.931159	-128.9283687	-200.5389703	189.6569053	-133.5574403	-206.3006027	184.5087259	-130.4963844	-208.1504498
28	14.01348617	192.5050796	-111.0078193	-164.9722787	198.4245947	-102.5756924	-152.7280802	207.400516	-112.6279522	-148.9250364	215.7906255	-124.9499461	-147.261353	197.7528954	-113.4067717	-183.7636739	219.7708242	-120.4726249	-164.6514676	211.8791769	-137.2729947	-157.2042202	204.1307176	-152.2854944	-150.9920443	193.5405939	-117.1429495	-184.4239387	221.4435738	-130.9301034	-176.9732493	211.7993229	-147.325205	-164.0475802	200.0916798	-159.8556053	-153.7563661	190.5271526	-121.8336026	-190.0880543	220.7924081	-130.8340795	-184.892927	211.2116563	-146.6620704	-172.9896689	201.3150126	-160.5203282	-162.5013338	188.0919467	-122.1206043	-190.2943391	210.620814	-126.0457966	-192.7451408	210.8462986	-137.8083419	-187.2027233	195.3515956	-146.2963615	-180.2150155	157.6137049	-101.8790571	-163.707194	-38.61292126	-127.879297	-135.1180544	167.5818278	-84.90326548	-160.1770512	-34.77103849	-142.6708516	-122.2158235	0	0	0	206.3865827	-103.1874929	-177.064049	206.7984449	-124.0117623	-198.1064454	192.018308	-128.9243523	-200.5113789	189.8145102	-133.5698647	-206.2682166	184.694487	-130.5685459	-208.0986633
29	14.02348617	192.466479	-110.9783095	-164.9685669	198.3894092	-102.5298037	-152.7329739	207.3550086	-112.5936369	-148.9460756	215.7390098	-124.9184931	-147.2827004	197.7302126	-113.3822944	-183.7563423	219.7469895	-120.4488538	-164.6441693	211.9107529	-137.2600105	-157.1637262	204.1532839	-152.2715753	-150.9614441	193.5174243	-117.1175313	-184.4187449	221.4225197	-130.8450252	-176.864507	211.8584556	-147.2845869	-163.9354656	200.146005	-159.8302978	-153.6705854	190.5076444	-121.8084783	-190.0840687	220.764172	-130.9293993	-185.049522	211.0842405	-146.7117734	-173.1650765	201.1895091	-160.5617221	-162.6639736	188.072539	-122.0949042	-190.2917801	210.601894	-126.1312893	-192.5562397	211.0199092	-137.8696397	-186.9847088	195.5167489	-146.3573943	-180.0123557	157.5766146	-101.8403585	-163.7338949	-38.69462969	-127.6775802	-135.2822494	167.5464821	-84.86636389	-160.1981555	-34.87615932	-142.4885328	-122.3959279	0	0	0	206.3432848	-103.1690649	-177.0694569	206.7772333	-123.9843354	-198.1002884	192.0675258	-128.9161159	-200.5008796	189.676667	-133.503581	-206.2876012	184.7602882	-130.6423952	-208.0682354
30	14.03348617	192.4863571	-110.9297521	-164.9277377	198.3528111	-102.6239568	-152.5750428	207.3269119	-112.6743218	-148.7731463	215.7279211	-124.9939528	-147.1450691	197.7461612	-113.3190619	-183.7177387	219.744041	-120.4547853	-164.6082298	211.9206825	-137.269469	-157.1209471	204.1515517	-152.2802494	-150.9308536	193.5321406	-117.0522865	-184.3830966	221.4748125	-130.7570876	-176.9410373	211.8375597	-147.1780504	-164.038512	200.1095938	-159.718052	-153.7816506	190.5199714	-121.7373156	-190.0522492	220.7560614	-130.8262965	-184.8397657	211.1390236	-146.6529434	-172.9638635	201.2318037	-160.5172579	-162.4936493	188.0847448	-122.0227295	-190.2601294	210.6036553	-126.1416614	-192.4804091	211.0848614	-137.8838555	-186.9223496	195.5746837	-146.3598824	-179.9517451	157.5994599	-101.7811499	-163.6800792	-38.65155983	-127.7640777	-135.2124254	167.5750181	-84.81369896	-160.131396	-34.82158925	-142.5667071	-122.3200484	0	0	0	206.4268134	-103.003002	-176.8787108	206.7802772	-123.9151274	-198.074133	192.0441736	-128.8276705	-200.4805523	189.7917539	-133.4483388	-206.248582	184.7685707	-130.5712421	-208.0341664
31	14.04348617	192.4903613	-110.9063542	-164.9260015	198.3460053	-102.593395	-152.5877056	207.3150891	-112.6445697	-148.7967609	215.7149282	-124.96667	-147.172438	197.7558621	-113.2989073	-183.7136481	219.7453754	-120.4531999	-164.6011604	211.9214473	-137.267904	-157.1182089	204.1493598	-152.2786973	-150.9311922	193.5413592	-117.0317201	-184.3805343	221.4584734	-130.7644453	-176.8890213	211.8650072	-147.205652	-163.9778108	200.1375033	-159.7484934	-153.7238966	190.5297147	-121.7173618	-190.0506914	220.7519771	-130.7762686	-184.6867056	211.2355546	-146.6583426	-172.7940625	201.3175567	-160.5254748	-162.3415197	188.0944829	-122.0023741	-190.2596336	210.6050764	-126.1402269	-192.5338078	211.0579611	-137.8932498	-186.9857759	195.5531178	-146.3644355	-179.9923144	157.6047731	-101.7509128	-163.6891428	-38.63947086	-127.7721718	-135.2083776	167.5822544	-84.78431375	-160.1383607	-34.80591937	-142.5740021	-122.316213	0	0	0	206.4222725	-102.9933583	-176.8912679	206.7907189	-123.8948707	-198.0707251	192.0670322	-128.8190147	-200.4745279	189.8859293	-133.4497501	-206.2363302	184.7364609	-130.5081438	-208.0448359
32	14.05348617	192.4920607	-110.8903507	-164.9254629	198.3422083	-102.5330086	-152.6106025	207.3070438	-112.5907713	-148.8394615	215.7007171	-124.9173368	-147.2219271	197.7626896	-113.2869801	-183.7121812	219.7498977	-120.4480883	-164.5979738	211.9217195	-137.2627783	-157.1168353	204.1476199	-152.2735927	-150.9323715	193.5479346	-117.0196944	-184.3796838	221.4289288	-130.7791602	-176.7949651	211.9146383	-147.2555616	-163.8680498	200.1879697	-159.803538	-153.619465	190.5377034	-121.7063321	-190.0502012	220.7488819	-130.743764	-184.5734812	211.3337967	-146.6681056	-172.6619663	201.40885	-160.5403327	-162.2207951	188.1025122	-121.9911305	-190.2594893	210.6060682	-126.1353345	-192.6303644	210.9972558	-137.9013277	-187.1069535	195.5011851	-146.3726685	-180.0825234	157.6071569	-101.7298291	-163.7055319	-38.63367115	-127.7749481	-135.2070875	167.5856348	-84.76314932	-160.1509544	-34.79833659	-142.576503	-122.3150102	0	0	0	206.4140029	-102.9885809	-176.913974	206.8034504	-123.8834338	-198.0694375	192.1083657	-128.8158221	-200.4713507	189.9579699	-133.452302	-206.2300352	184.6783994	-130.4532903	-208.0641286
33	14.06348617	192.4962831	-110.8846391	-164.9233941	198.341253	-102.4867312	-152.6222513	207.3043222	-112.5630715	-148.8613432	215.6944203	-124.8919399	-147.2472577	197.774736	-113.2792759	-183.7074585	219.7587871	-120.4386406	-164.5909614	211.9226034	-137.2531356	-157.1165909	204.1469359	-152.2639418	-150.9348199	193.5595127	-117.0104085	-184.3767051	221.4139113	-130.7909217	-176.7467406	211.9399658	-147.2811603	-163.8118796	200.2137122	-159.8317779	-153.5660496	190.5509541	-121.6946511	-190.0483272	220.7478963	-130.7325957	-184.5312326	211.3768128	-146.6730036	-172.6112085	201.4494445	-160.5478177	-162.1739208	188.1158033	-121.9788468	-190.258739	210.6085887	-126.1256203	-192.6800621	210.9302232	-137.9042997	-187.1885996	195.4360426	-146.3765988	-180.1790056	157.6127676	-101.7180856	-163.7136985	-38.62080494	-127.7838453	-135.202542	167.5932486	-84.75530284	-160.1571189	-34.78163931	-142.5845221	-122.3106614	0	0	0	206.40957	-102.9874818	-176.9255738	206.8094186	-123.8723081	-198.0654083	192.129563	-128.8073515	-200.463355	189.985445	-133.453484	-206.2163448	184.6485931	-130.3793779	-208.0739226
34	14.07348617	192.5301966	-110.8972216	-164.7764477	198.4382451	-102.4670903	-152.5300318	207.3820325	-112.5721919	-148.8040402	215.7652089	-124.9025528	-147.1655729	197.8169261	-113.2744313	-183.5609951	219.924519	-120.3478541	-164.5533069	211.9501591	-137.1429682	-157.1817495	204.1470663	-152.1478713	-151.0203787	193.6000168	-117.0028134	-184.2361641	221.5162159	-130.7968693	-176.8597616	211.8192317	-147.2163877	-163.998262	200.0851679	-159.7640076	-153.7574814	190.5918119	-121.6797667	-189.9142614	220.8560273	-130.758769	-184.8460452	211.1959292	-146.5823101	-172.998181	201.241784	-160.4327995	-162.5542038	188.1566148	-121.9625153	-190.1259833	210.6723408	-125.9216611	-192.6477489	210.8577767	-137.7304232	-187.2122022	195.337043	-146.2178595	-180.2800303	157.6510549	-101.7134682	-163.5730773	-38.54597063	-128.0036726	-135.0158058	167.6389374	-84.75951206	-159.9923053	-34.68637222	-142.7831902	-122.1057581	0	0	0	206.4094058	-103.0669112	-176.8624768	206.8048667	-123.8597397	-197.952988	192.0676949	-128.7336691	-200.3640282	189.8082571	-133.3514487	-206.1377482	184.6993649	-130.2449855	-208.000184
35	14.08348617	192.5034498	-110.8369216	-164.7610521	198.426846	-102.4485213	-152.4917142	207.3500994	-112.592143	-148.8146523	215.7388391	-124.9185361	-147.1744888	197.8087301	-113.2146197	-183.5397438	219.9223785	-120.3526066	-164.5650991	211.9490225	-137.145402	-157.1885434	204.1390477	-152.1462707	-151.0246713	193.5916499	-116.9417542	-184.2196002	221.4956465	-130.7659694	-176.8513072	211.8488203	-147.198001	-163.9705116	200.1228723	-159.7433139	-153.7183227	190.5881428	-121.6173473	-189.901058	220.8724945	-130.724909	-185.0150046	211.1534691	-146.5242597	-173.182968	201.1803438	-160.362974	-162.7390389	188.1530973	-121.8994174	-190.1154935	210.6487636	-126.004502	-192.5914279	210.7894299	-137.8205986	-187.1713694	195.2693631	-146.3137739	-180.2423764	157.6252211	-101.6445294	-163.5979617	-38.59926833	-127.8395328	-135.1562189	167.613368	-84.69344129	-160.0052452	-34.75379683	-142.6348552	-122.2597123	0	0	0	206.389935	-102.993239	-176.8270113	206.7620974	-123.7986073	-197.9557406	192.0387027	-128.6701041	-200.3451893	189.7184424	-133.2508691	-206.1477255	184.6803198	-130.1472216	-208.0017142
